<svg width="16" height="16" viewBox="0 0 16 16" fill="none" xmlns="http://www.w3.org/2000/svg">
<rect width="16" height="16" rx="8" fill="#BBBBBB" fill-opacity="0.933333"/>
<path fill-rule="evenodd" clip-rule="evenodd" d="M6.74994 4.00001C6.74994 3.58579 7.08574 3.25001 7.49994 3.25001H8.99994C9.41414 3.25001 9.74994 3.58579 9.74994 4.00001C9.74994 4.41422 9.41414 4.75001 8.99994 4.75001H7.49994C7.08574 4.75001 6.74994 4.41422 6.74994 4.00001ZM6.74994 6.00001C6.74994 5.58579 7.08574 5.25001 7.49994 5.25001H8.99994C9.41414 5.25001 9.74994 5.58579 9.74994 6.00001C9.74994 6.41422 9.41414 6.75001 8.99994 6.75001H7.49994C7.08574 6.75001 6.74994 6.41422 6.74994 6.00001ZM10.2499 6.00001C10.2499 5.58579 10.5857 5.25001 10.9999 5.25001H12.4999C12.9141 5.25001 13.2499 5.58579 13.2499 6.00001C13.2499 6.41422 12.9141 6.75001 12.4999 6.75001H10.9999C10.5857 6.75001 10.2499 6.41422 10.2499 6.00001ZM3.24994 8.00001C3.24994 7.58581 3.58572 7.25001 3.99994 7.25001H5.49994C5.91415 7.25001 6.24994 7.58581 6.24994 8.00001C6.24994 8.41421 5.91415 8.75001 5.49994 8.75001H3.99994C3.58572 8.75001 3.24994 8.41421 3.24994 8.00001ZM6.74994 8.00001C6.74994 7.58581 7.08574 7.25001 7.49994 7.25001H8.99994C9.41414 7.25001 9.74994 7.58581 9.74994 8.00001C9.74994 8.41421 9.41414 8.75001 8.99994 8.75001H7.49994C7.08574 8.75001 6.74994 8.41421 6.74994 8.00001ZM10.2499 8.00001C10.2499 7.58581 10.5857 7.25001 10.9999 7.25001H12.4999C12.9141 7.25001 13.2499 7.58581 13.2499 8.00001C13.2499 8.41421 12.9141 8.75001 12.4999 8.75001H10.9999C10.5857 8.75001 10.2499 8.41421 10.2499 8.00001ZM3.24994 10C3.24994 9.58581 3.58572 9.25001 3.99994 9.25001H5.49994C5.91415 9.25001 6.24994 9.58581 6.24994 10C6.24994 10.4142 5.91415 10.75 5.49994 10.75H3.99994C3.58572 10.75 3.24994 10.4142 3.24994 10ZM6.74994 10C6.74994 9.58581 7.08574 9.25001 7.49994 9.25001H8.99994C9.41414 9.25001 9.74994 9.58581 9.74994 10C9.74994 10.4142 9.41414 10.75 8.99994 10.75H7.49994C7.08574 10.75 6.74994 10.4142 6.74994 10ZM10.2499 10C10.2499 9.58581 10.5857 9.25001 10.9999 9.25001H12.4999C12.9141 9.25001 13.2499 9.58581 13.2499 10C13.2499 10.4142 12.9141 10.75 12.4999 10.75H10.9999C10.5857 10.75 10.2499 10.4142 10.2499 10ZM3.24994 12C3.24994 11.5858 3.58572 11.25 3.99994 11.25H5.49994C5.91415 11.25 6.24994 11.5858 6.24994 12C6.24994 12.4142 5.91415 12.75 5.49994 12.75H3.99994C3.58572 12.75 3.24994 12.4142 3.24994 12ZM6.74994 12C6.74994 11.5858 7.08574 11.25 7.49994 11.25H8.99994C9.41414 11.25 9.74994 11.5858 9.74994 12C9.74994 12.4142 9.41414 12.75 8.99994 12.75H7.49994C7.08574 12.75 6.74994 12.4142 6.74994 12ZM10.2499 12C10.2499 11.5858 10.5857 11.25 10.9999 11.25H12.4999C12.9141 11.25 13.2499 11.5858 13.2499 12C13.2499 12.4142 12.9141 12.75 12.4999 12.75H10.9999C10.5857 12.75 10.2499 12.4142 10.2499 12Z" fill="#E54D26"/>
</svg>
